<svg width="27" height="36" viewBox="0 0 27 36" fill="none" xmlns="http://www.w3.org/2000/svg">
<g clip-path="url(#clip0_33_3118)">
<path d="M7.65925 35.9749C7.28213 35.8014 7.14744 35.5091 7.1654 35.0981C7.18336 34.4405 7.17438 33.7828 7.17438 33.1161C6.92297 33.0613 6.69849 33.0339 6.49197 32.9699C5.54917 32.6868 4.86676 31.8556 4.77697 30.8692C4.41781 27.1336 4.05865 23.3888 3.69051 19.6531C3.46603 17.3515 3.24156 15.0498 3.02606 12.7481C3.02606 12.7025 3.0081 12.6659 2.99014 12.602C2.4065 12.739 1.83185 12.8851 1.25719 13.0221C0.853129 13.1226 0.538862 12.9582 0.422135 12.5563C0.27847 12.0083 0.143784 11.4512 0.0270564 10.9031C-0.053755 10.5378 0.188679 10.1907 0.547841 10.1085C0.880066 10.0355 1.22127 10.2364 1.32902 10.5926C1.41881 10.894 1.48166 11.2046 1.56247 11.5608C9.53587 9.46917 17.5093 7.39584 25.4647 5.33164C25.4018 3.80633 24.3333 3.23091 23.2379 3.52319C17.2938 5.09417 11.3496 6.62862 5.39653 8.1722C4.91166 8.30007 4.54352 8.10826 4.44475 7.68812C4.35496 7.29537 4.59739 6.96656 5.08226 6.84782C5.09124 6.84782 5.10022 6.84782 5.11818 6.83869C5.91731 6.62862 6.71645 6.41854 7.5515 6.19934C7.48865 5.91619 7.42579 5.66045 7.37192 5.39558C7.08459 4.11687 7.77598 2.85643 9.02406 2.50936C10.9007 1.98874 12.7863 1.49553 14.6809 1.03885C15.9649 0.728303 17.177 1.50466 17.5272 2.80163C17.5901 3.03911 17.6529 3.28571 17.7158 3.55059C18.6496 3.31312 19.5565 3.07564 20.4634 2.83817C21.3343 2.60983 22.1963 2.38149 23.0673 2.16228C24.6745 1.75127 26.192 2.64636 26.6499 4.27214C26.7667 4.68316 26.8654 5.11244 26.9642 5.53258C27.0899 6.04407 26.9013 6.36374 26.3895 6.50075C24.7105 6.93916 23.0314 7.37757 21.3523 7.80685C20.9123 7.92559 20.4724 8.03519 20.0324 8.15393C20.0324 8.18133 20.0324 8.20873 20.0324 8.24527C20.4095 8.27267 20.7776 8.31833 21.1548 8.31833C22.8428 8.30007 24.0729 9.03989 24.8362 10.5743C24.89 10.6748 25.0427 10.757 25.1594 10.7753C25.348 10.8118 25.5365 10.7753 25.7251 10.7844C26.192 10.8027 26.4524 11.0858 26.4165 11.5608C26.3446 12.4467 26.2549 13.3327 26.174 14.2095C26.1381 14.584 26.1022 14.9585 26.0663 15.3329C26.0214 15.7896 25.7251 16.091 25.339 16.0636C24.9439 16.0362 24.6925 15.7166 24.7284 15.2416C24.7913 14.4105 24.8811 13.5884 24.9619 12.7573C24.9798 12.5746 24.9888 12.3919 25.0068 12.1727C24.8721 12.1636 24.7554 12.1545 24.6386 12.1545C18.066 12.1545 11.4933 12.1545 4.91166 12.1545C4.82187 12.1545 4.73208 12.1545 4.64229 12.1636C4.40883 12.1727 4.30108 12.2458 4.32802 12.5381C4.73208 16.6208 5.11818 20.6944 5.50428 24.7771C5.69284 26.7226 5.8814 28.6772 6.07893 30.6226C6.15077 31.3533 6.5638 31.7095 7.29111 31.7186C8.68286 31.7278 10.0656 31.7186 11.4574 31.7186C14.9053 31.7186 18.3533 31.7186 21.8102 31.7186C22.8069 31.7186 23.1481 31.3898 23.2469 30.376C23.5342 27.3802 23.8215 24.3935 24.1178 21.3977C24.1627 20.9319 24.4501 20.6578 24.8541 20.6944C25.2402 20.7218 25.4916 21.0232 25.4557 21.489C25.33 22.9778 25.1774 24.4574 25.0337 25.9462C24.89 27.4441 24.7374 28.9329 24.5937 30.4308C24.4321 32.1023 23.8395 32.769 22.1604 33.107C22.1604 33.7372 22.1425 34.3857 22.1694 35.0341C22.1873 35.4543 22.0527 35.7648 21.6935 35.9658C17.0244 35.9749 12.3373 35.9749 7.65925 35.9749ZM20.8136 33.107C16.7101 33.107 12.6336 33.107 8.53022 33.107C8.53022 33.6093 8.53022 34.0934 8.53022 34.5866C12.6336 34.5866 16.7101 34.5866 20.8136 34.5866C20.8136 34.1025 20.8136 33.6276 20.8136 33.107ZM10.1913 10.7205C10.1913 10.7387 10.1913 10.757 10.1913 10.7753C14.5731 10.7753 18.9459 10.7753 23.3905 10.7753C23.2918 10.6474 23.2289 10.5561 23.1571 10.4739C22.6543 9.91672 22.0257 9.67011 21.2984 9.68838C20.3556 9.70664 19.4577 9.54224 18.6137 9.08556C18.1109 8.82068 17.5631 8.80242 17.0154 8.93942C16.0008 9.20429 14.9772 9.46004 13.9625 9.72491C12.6965 10.0629 11.4484 10.3917 10.1913 10.7205ZM16.4138 3.89767C16.333 3.60539 16.2791 3.34965 16.2073 3.10304C16.0277 2.51849 15.5339 2.23535 14.9502 2.38149C14.4743 2.50022 13.9985 2.62809 13.5226 2.74683C12.1937 3.09391 10.8558 3.43185 9.52689 3.78806C8.91631 3.94333 8.60205 4.36348 8.67388 4.94803C8.7098 5.24944 8.79959 5.54172 8.8804 5.86139C11.3945 5.20377 13.8817 4.55529 16.4138 3.89767Z" fill="#1976D2"/>
<path d="M17.0872 18.0456C17.3476 17.9086 17.563 17.7168 17.7965 17.6894C18.2455 17.6255 18.6136 18.137 18.434 18.5662C18.2365 19.0595 18.012 19.5435 17.7247 19.9911C17.6169 20.1555 17.3116 20.2834 17.0961 20.2742C16.6651 20.2651 16.2342 20.1555 15.8032 20.0733C15.3991 20.0002 15.1926 19.7719 15.1656 19.4339C15.1477 19.0686 15.3273 18.8403 15.7403 18.7124C15.7672 18.7033 15.8032 18.685 15.866 18.6576C15.6415 18.274 15.444 17.8812 15.2016 17.5159C14.9591 17.1505 14.4743 17.2053 14.2408 17.6164C13.8278 18.3196 13.4327 19.0321 13.0286 19.7445C12.867 20.0276 12.6515 20.2012 12.3193 20.1646C11.8614 20.1098 11.583 19.6166 11.8075 19.1965C12.2654 18.347 12.7144 17.4885 13.2441 16.6939C13.9625 15.6161 15.6146 15.68 16.3329 16.7852C16.6292 17.2053 16.8627 17.662 17.0872 18.0456Z" fill="#1976D2"/>
<path d="M9.67961 22.923C9.56288 22.8956 9.45513 22.8773 9.36534 22.8499C9.06903 22.7403 8.91639 22.5211 8.91639 22.2014C8.91639 21.8817 9.07801 21.626 9.3833 21.5712C9.92204 21.4707 10.4698 21.4251 11.0175 21.3977C11.2958 21.3794 11.4844 21.5803 11.6011 21.8452C11.7717 22.238 11.9423 22.6398 12.095 23.0417C12.2386 23.4162 12.1399 23.7541 11.8436 23.9368C11.5473 24.1195 11.224 24.0464 10.9546 23.745C10.9277 23.7085 10.9097 23.6628 10.8738 23.5989C10.6493 24.0007 10.4428 24.3387 10.2632 24.6858C10.0388 25.115 10.2902 25.5352 10.7661 25.5443C11.5832 25.5535 12.4003 25.5443 13.2174 25.5535C13.6932 25.5626 13.9806 25.8183 13.9985 26.2202C14.0075 26.5856 13.7651 26.9052 13.3969 26.9052C12.4092 26.9144 11.4215 26.96 10.4428 26.887C9.19474 26.7865 8.46744 25.316 9.02414 24.1469C9.2127 23.7267 9.45513 23.3431 9.67961 22.923Z" fill="#1976D2"/>
<path d="M17.6528 26.8961C17.6887 27.0788 17.7336 27.2249 17.7336 27.3619C17.7336 27.6542 17.581 27.8551 17.3296 27.9739C17.0692 28.0926 16.7998 28.0469 16.6202 27.8277C16.279 27.4076 15.9648 26.96 15.6684 26.5125C15.5068 26.275 15.5787 26.0102 15.7493 25.7818C16.0007 25.4347 16.2521 25.0877 16.5125 24.7406C16.7639 24.4026 17.0782 24.3204 17.3924 24.4848C17.6977 24.6492 17.8055 24.9507 17.6977 25.3617C17.6887 25.4073 17.6798 25.4439 17.6708 25.5169C18.0838 25.5169 18.4879 25.5443 18.8919 25.5078C19.305 25.4713 19.4935 25.0329 19.269 24.6218C18.8919 23.9368 18.4968 23.2609 18.1107 22.585C17.9671 22.3293 17.9491 22.0644 18.1107 21.8178C18.2724 21.5804 18.5148 21.4616 18.7842 21.553C18.9638 21.6078 19.1523 21.7356 19.2511 21.8909C19.6821 22.6033 20.1131 23.334 20.4902 24.0738C21.1457 25.3617 20.2747 26.8413 18.856 26.887C18.4609 26.9052 18.0748 26.8961 17.6528 26.8961Z" fill="#1976D2"/>
<path d="M2.33476 7.59677C2.7029 7.60591 2.99921 7.90732 2.99023 8.27266C2.98125 8.638 2.68494 8.94855 2.32578 8.94855C1.94866 8.94855 1.65235 8.62887 1.66133 8.24526C1.67031 7.87078 1.96662 7.58764 2.33476 7.59677Z" fill="#1976D2"/>
<path d="M25.0876 19.0321C24.7195 19.0229 24.4321 18.7306 24.4321 18.3562C24.4321 17.9817 24.7284 17.6803 25.0876 17.6711C25.4647 17.6711 25.77 17.9908 25.761 18.3744C25.752 18.7489 25.4647 19.0321 25.0876 19.0321Z" fill="#1976D2"/>
</g>
<defs>
<clipPath id="clip0_33_3118">
<rect width="27" height="35" fill="white" transform="translate(0 0.974915)"/>
</clipPath>
</defs>
</svg>
