<svg width="25" height="25" viewBox="0 0 25 25" fill="none" xmlns="http://www.w3.org/2000/svg">
<path d="M7.36387 6.22684C7.18386 6.51175 6.94368 6.75382 6.6602 6.93607C6.37672 7.11833 6.05679 7.23634 5.72287 7.28184C5.34287 7.33584 4.96587 7.39384 4.58887 7.45684C3.53587 7.63184 2.78687 8.55884 2.78687 9.62584V18.0518C2.78687 18.6486 3.02392 19.2209 3.44587 19.6428C3.86783 20.0648 4.44013 20.3018 5.03687 20.3018H20.0369C20.6336 20.3018 21.2059 20.0648 21.6279 19.6428C22.0498 19.2209 22.2869 18.6486 22.2869 18.0518V9.62584C22.2869 8.55884 21.5369 7.63184 20.4849 7.45684C20.1076 7.39398 19.7296 7.33564 19.3509 7.28184C19.0171 7.2362 18.6974 7.11812 18.4141 6.93588C18.1308 6.75363 17.8908 6.51163 17.7109 6.22684L16.8889 4.91084C16.7042 4.61094 16.4501 4.35993 16.1479 4.17908C15.8457 3.99822 15.5044 3.89283 15.1529 3.87184C13.4101 3.77823 11.6636 3.77823 9.92087 3.87184C9.56932 3.89283 9.22801 3.99822 8.92583 4.17908C8.62364 4.35993 8.36948 4.61094 8.18486 4.91084L7.36387 6.22684Z" stroke="#9E9E9E" stroke-width="1.5" stroke-linecap="round" stroke-linejoin="round"/>
<path d="M17.0369 12.8018C17.0369 13.9953 16.5628 15.1399 15.7188 15.9838C14.8749 16.8277 13.7303 17.3018 12.5369 17.3018C11.3434 17.3018 10.1988 16.8277 9.35489 15.9838C8.51097 15.1399 8.03687 13.9953 8.03687 12.8018C8.03687 11.6084 8.51097 10.4638 9.35489 9.61985C10.1988 8.77594 11.3434 8.30183 12.5369 8.30183C13.7303 8.30183 14.8749 8.77594 15.7188 9.61985C16.5628 10.4638 17.0369 11.6084 17.0369 12.8018ZM19.2869 10.5518H19.2949V10.5598H19.2869V10.5518Z" stroke="#9E9E9E" stroke-width="1.5" stroke-linecap="round" stroke-linejoin="round"/>
</svg>
