<svg width="25" height="25" viewBox="0 0 25 25" fill="none" xmlns="http://www.w3.org/2000/svg">
<path d="M10.6201 2.30183H6.12012C5.49912 2.30183 4.99512 2.80583 4.99512 3.42683V20.6768C4.99512 21.2978 5.49912 21.8018 6.12012 21.8018H18.8701C19.4911 21.8018 19.9951 21.2978 19.9951 20.6768V11.6768M10.6201 2.30183H10.9951C13.3821 2.30183 15.6713 3.25005 17.3591 4.93787C19.0469 6.6257 19.9951 8.91489 19.9951 11.3018V11.6768M10.6201 2.30183C11.5152 2.30183 12.3737 2.65741 13.0066 3.29035C13.6395 3.92328 13.9951 4.78173 13.9951 5.67683V7.17683C13.9951 7.79783 14.4991 8.30183 15.1201 8.30183H16.6201C17.5152 8.30183 18.3737 8.65741 19.0066 9.29035C19.6395 9.92328 19.9951 10.7817 19.9951 11.6768M9.49512 15.0518L11.7451 17.3018L15.4951 12.0518" stroke="#9E9E9E" stroke-width="1.5" stroke-linecap="round" stroke-linejoin="round"/>
</svg>
