<svg width="20" height="18" viewBox="0 0 20 18" fill="none" xmlns="http://www.w3.org/2000/svg">
<path d="M1.46655 2.14274C1.46655 1.54056 1.98583 1.05183 2.62564 1.05183H7.26201C7.90183 1.05183 8.4211 1.54056 8.4211 2.14274V6.50638C8.4211 7.10856 7.90183 7.59729 7.26201 7.59729H2.62564C2.31823 7.59729 2.02341 7.48235 1.80604 7.27777C1.58867 7.07318 1.46655 6.79571 1.46655 6.50638V2.14274ZM1.46655 11.5973C1.46655 10.9951 1.98583 10.5064 2.62564 10.5064H7.26201C7.90183 10.5064 8.4211 10.9951 8.4211 11.5973V15.9609C8.4211 16.5631 7.90183 17.0518 7.26201 17.0518H2.62564C2.31823 17.0518 2.02341 16.9369 1.80604 16.7323C1.58867 16.5277 1.46655 16.2503 1.46655 15.9609V11.5973ZM11.512 2.14274C11.512 1.54056 12.0313 1.05183 12.6711 1.05183H17.3075C17.9473 1.05183 18.4666 1.54056 18.4666 2.14274V6.50638C18.4666 7.10856 17.9473 7.59729 17.3075 7.59729H12.6711C12.3637 7.59729 12.0689 7.48235 11.8515 7.27777C11.6341 7.07318 11.512 6.79571 11.512 6.50638V2.14274Z" stroke="#1976D2" stroke-width="1.5" stroke-linecap="round" stroke-linejoin="round"/>
<path d="M4.55746 3.96092H5.33019V4.6882H4.55746V3.96092ZM4.55746 13.4155H5.33019V14.1427H4.55746V13.4155ZM14.6029 3.96092H15.3756V4.6882H14.6029V3.96092ZM11.512 10.5064H12.2847V11.2337H11.512V10.5064ZM11.512 16.3246H12.2847V17.0518H11.512V16.3246ZM17.6938 10.5064H18.4666V11.2337H17.6938V10.5064ZM17.6938 16.3246H18.4666V17.0518H17.6938V16.3246ZM14.6029 13.4155H15.3756V14.1427H14.6029V13.4155Z" stroke="#1976D2" stroke-width="1.5" stroke-linecap="round" stroke-linejoin="round"/>
</svg>
