<svg width="118" height="119" viewBox="0 0 118 119" fill="none" xmlns="http://www.w3.org/2000/svg">
<g clip-path="url(#clip0_33_3187)">
<path d="M41.5368 105.408C40.5554 104.975 40.1801 104.196 40.209 103.128C40.2667 101.425 40.209 99.722 40.209 97.9901C39.5451 97.8458 38.9678 97.7592 38.3905 97.6148C35.9081 96.8932 34.1185 94.7283 33.8587 92.1594C32.9062 82.4607 31.9536 72.7332 31.0011 63.0346C30.4238 57.0596 29.8176 51.0845 29.2403 45.1095C29.2403 44.994 29.1826 44.8785 29.1537 44.7342C27.6239 45.1095 26.094 45.4558 24.5642 45.8311C23.4962 46.0909 22.6591 45.6579 22.3704 44.6188C21.9663 43.2044 21.62 41.7611 21.3024 40.3179C21.1004 39.3653 21.7354 38.4705 22.688 38.2685C23.5828 38.0664 24.4776 38.586 24.7374 39.5385C24.9683 40.3179 25.1415 41.1261 25.3724 42.0498C46.4727 36.652 67.5153 31.2831 88.5578 25.8854C88.3846 21.9309 85.5559 20.4299 82.6694 21.1804C67.0246 25.2215 51.2931 29.2049 35.5906 33.2171C34.2917 33.5346 33.3391 33.0728 33.0793 31.9759C32.8484 30.9656 33.4835 30.0997 34.7535 29.7822C34.7824 29.7822 34.8112 29.7822 34.8401 29.7533C36.9473 29.2049 39.0544 28.6564 41.277 28.0791C41.1038 27.3575 40.9595 26.6647 40.7863 26.0008C40.0358 22.6814 41.8543 19.4196 45.1449 18.5248C50.1097 17.1682 55.0745 15.8981 60.0681 14.7146C63.4453 13.9064 66.6493 15.927 67.573 19.2753C67.7462 19.9103 67.8905 20.5165 68.0637 21.2381C70.5172 20.6031 72.913 19.9969 75.3088 19.3908C77.5891 18.8135 79.8983 18.2073 82.1787 17.63C86.4218 16.562 90.434 18.9001 91.6464 23.1143C91.9639 24.1824 92.2237 25.2792 92.4835 26.3761C92.801 27.7039 92.3391 28.541 90.9825 28.8873C86.5373 30.0419 82.1209 31.1677 77.6757 32.2934C76.5211 32.5821 75.3377 32.8996 74.1831 33.1882C74.1831 33.2748 74.1831 33.3326 74.1831 33.4191C75.1645 33.4769 76.1459 33.6212 77.1562 33.6212C81.6302 33.5635 84.8631 35.4974 86.8837 39.4808C87.028 39.7406 87.4321 39.9426 87.7496 40.0004C88.2403 40.087 88.7599 40.0004 89.2506 40.0292C90.4918 40.087 91.1845 40.8086 91.0691 42.0498C90.8959 44.359 90.6361 46.6393 90.434 48.9485C90.3474 49.9299 90.2608 50.8825 90.1454 51.8639C90.0299 53.0473 89.2506 53.8267 88.2114 53.7401C87.1723 53.6535 86.5084 52.8453 86.595 51.6041C86.7682 49.4392 86.9991 47.3032 87.2012 45.1672C87.2589 44.7054 87.2878 44.2146 87.3166 43.6373C86.9702 43.6085 86.6527 43.5796 86.3352 43.5796C68.9585 43.5796 51.6107 43.5796 34.2339 43.5796C34.003 43.5796 33.7721 43.5796 33.5123 43.6085C32.9062 43.6373 32.6175 43.8105 32.6752 44.5899C33.7432 55.1833 34.7535 65.7768 35.7927 76.3702C36.2834 81.4216 36.7741 86.5018 37.3225 91.5532C37.5246 93.4583 38.6214 94.382 40.5265 94.382C44.1924 94.4108 47.8582 94.382 51.5241 94.382C60.6454 94.382 69.7379 94.382 78.8592 94.382C81.4859 94.382 82.4096 93.5449 82.6405 90.9182C83.391 83.1535 84.1703 75.3888 84.9208 67.6241C85.0363 66.4118 85.7868 65.7191 86.8837 65.8056C87.9228 65.8922 88.5578 66.6716 88.4712 67.8551C88.1248 71.723 87.7496 75.562 87.3744 79.4299C86.9991 83.3267 86.595 87.1946 86.2198 91.0914C85.7868 95.4211 84.2281 97.153 79.7829 98.0478C79.7829 99.6931 79.7251 101.367 79.8117 103.041C79.8406 104.138 79.4942 104.918 78.5705 105.466C66.3029 105.408 53.9199 105.408 41.5368 105.408ZM76.2902 97.9901C65.437 97.9901 54.6703 97.9901 43.846 97.9901C43.846 99.289 43.846 100.559 43.846 101.829C54.6703 101.829 65.4658 101.829 76.2902 101.829C76.2902 100.559 76.2902 99.3179 76.2902 97.9901ZM48.2623 39.8272C48.2623 39.8849 48.2623 39.9138 48.2623 39.9715C59.8372 39.9715 71.3832 39.9715 83.1312 39.9715C82.8714 39.6251 82.6982 39.3942 82.525 39.1921C81.1973 37.7489 79.5231 37.1139 77.618 37.1427C75.1067 37.2005 72.7687 36.7675 70.5172 35.584C69.1894 34.8913 67.7462 34.8335 66.2741 35.2088C63.5896 35.9015 60.9052 36.5654 58.1919 37.2582C54.8724 38.1241 51.5529 38.9901 48.2623 39.8272ZM64.6865 22.1329C64.4844 21.3825 64.3401 20.7186 64.1381 20.0547C63.6474 18.5537 62.3484 17.8032 60.8186 18.1784C59.5485 18.496 58.3073 18.8135 57.0373 19.131C53.5157 20.0258 49.9942 20.9206 46.4727 21.8154C44.8563 22.2195 44.048 23.3164 44.2212 24.8462C44.3078 25.6256 44.5676 26.3761 44.7697 27.2132C51.4375 25.5101 57.9898 23.836 64.6865 22.1329Z" fill="#DEDEDE"/>
<path d="M66.476 58.878C67.1688 58.5317 67.7461 58.041 68.3522 57.9544C69.5357 57.7812 70.4882 59.109 70.0264 60.2347C69.5068 61.5048 68.9007 62.7748 68.1502 63.9294C67.8615 64.3624 67.0533 64.6799 66.5049 64.6799C65.3503 64.651 64.2245 64.3624 63.0988 64.1603C62.0308 63.9583 61.4824 63.381 61.4246 62.515C61.3669 61.5625 61.8576 60.9563 62.9256 60.6388C63.0122 60.6099 63.0699 60.5811 63.2431 60.4945C62.6658 59.4842 62.1463 58.4739 61.5112 57.5503C60.8473 56.5977 59.6061 56.742 58.9711 57.81C57.9031 59.6285 56.8351 61.4759 55.7671 63.3232C55.363 64.0449 54.7568 64.5067 53.8909 64.4201C52.6786 64.2758 51.9281 63.0057 52.5342 61.9089C53.7466 59.7151 54.93 57.4925 56.3155 55.4142C58.2206 52.6143 62.5792 52.7875 64.4843 55.6452C65.2348 56.6843 65.8698 57.8678 66.476 58.878Z" fill="#DEDEDE"/>
<path d="M46.9058 71.5209C46.5882 71.4343 46.3285 71.4055 46.0687 71.3189C45.2893 71.0302 44.8852 70.4818 44.8852 69.6447C44.8852 68.8076 45.3182 68.1437 46.0975 67.9994C47.5119 67.7396 48.9552 67.6241 50.3984 67.5376C51.1489 67.5087 51.6396 68.0283 51.9283 68.6922C52.3612 69.7313 52.8231 70.7416 53.256 71.7807C53.6313 72.7332 53.3715 73.6281 52.5921 74.1188C51.8128 74.5806 50.9468 74.4074 50.2252 73.5992C50.1386 73.5126 50.1098 73.3971 50.0232 73.224C49.417 74.2631 48.8686 75.129 48.4067 76.0527C47.8294 77.1785 48.4645 78.2465 49.7345 78.2753C51.8994 78.3042 54.0354 78.2753 56.2003 78.3042C57.4703 78.3042 58.2208 78.9969 58.2497 80.0361C58.2785 80.9886 57.6435 81.7969 56.6621 81.8257C54.0643 81.8546 51.4376 81.97 48.8686 81.768C45.578 81.5082 43.644 77.698 45.145 74.6672C45.6646 73.5992 46.2996 72.6178 46.9058 71.5209Z" fill="#DEDEDE"/>
<path d="M67.9482 81.8546C68.0348 82.3453 68.1503 82.6916 68.1503 83.0669C68.1503 83.8174 67.7462 84.3369 67.0823 84.6545C66.3895 84.972 65.6679 84.8565 65.206 84.2792C64.3112 83.1823 63.4741 82.0277 62.6948 80.8731C62.2907 80.2381 62.4639 79.5742 62.8968 78.9681C63.5607 78.0732 64.2246 77.1496 64.9174 76.2547C65.5813 75.3888 66.4184 75.1579 67.2554 75.5909C68.0637 76.0238 68.3523 76.8032 68.0637 77.8712C68.0348 77.9866 68.0348 78.1021 67.9771 78.2753C69.0739 78.2753 70.1419 78.333 71.1811 78.2464C72.278 78.1598 72.7687 77.0052 72.1914 75.9661C71.1811 74.1765 70.1708 72.4446 69.1317 70.6838C68.7564 70.0199 68.6987 69.3272 69.1317 68.6921C69.5646 68.0571 70.1997 67.7684 70.8924 67.9994C71.3543 68.1437 71.8738 68.4901 72.1336 68.8942C73.2882 70.7415 74.414 72.6466 75.3954 74.5806C77.1273 77.9289 74.8469 81.768 71.0656 81.8834C70.0842 81.8834 69.0739 81.8546 67.9482 81.8546Z" fill="#DEDEDE"/>
<path d="M27.5084 31.7161C28.4898 31.745 29.2403 32.5243 29.2403 33.4769C29.2114 34.4294 28.4321 35.2376 27.4795 35.2376C26.4981 35.2376 25.6899 34.4005 25.7188 33.3903C25.7476 32.4377 26.527 31.7161 27.5084 31.7161Z" fill="#DEDEDE"/>
<path d="M87.6052 61.4182C86.6238 61.3893 85.8733 60.6388 85.8733 59.6574C85.8733 58.676 86.6526 57.8966 87.6052 57.8966C88.5866 57.8966 89.3948 58.7337 89.366 59.7151C89.3371 60.6965 88.5866 61.447 87.6052 61.4182Z" fill="#DEDEDE"/>
<path d="M5.63767e-05 0.974915C9.23685 0.974915 18.5025 0.974915 27.797 0.974915C27.797 3.28411 27.797 5.53558 27.797 7.84478C20.8694 7.84478 13.9707 7.84478 6.95651 7.84478C6.95651 14.859 6.95651 21.7577 6.95651 28.8585C4.56072 28.8585 2.25152 28.8585 -0.0288086 28.8585C5.63767e-05 19.564 5.63767e-05 10.2694 5.63767e-05 0.974915Z" fill="#DEDEDE"/>
<path d="M0 91.0914C2.25147 91.0914 4.50294 91.0914 6.89873 91.0914C6.89873 98.1056 6.89873 105.033 6.89873 112.047C13.9129 112.047 20.8116 112.047 27.8836 112.047C27.8836 114.414 27.8836 116.695 27.8836 118.975C18.6179 118.975 9.32339 118.975 0 118.975C0 109.68 0 100.386 0 91.0914Z" fill="#DEDEDE"/>
<path d="M90.1165 118.975C90.1165 116.723 90.1165 114.472 90.1165 112.076C97.1306 112.076 104.058 112.076 111.044 112.076C111.044 105.062 111.044 98.1633 111.044 91.1779C113.353 91.1779 115.604 91.1779 118 91.1779C118 100.415 118 109.709 118 118.975C108.705 118.975 99.411 118.975 90.1165 118.975Z" fill="#DEDEDE"/>
<path d="M111.13 7.87366C104.03 7.87366 97.1308 7.87366 90.1743 7.87366C90.1743 5.56446 90.1743 3.37072 90.1743 1.06152C99.4111 1.06152 108.648 1.06152 117.942 1.06152C117.942 10.2983 117.942 19.5351 117.942 28.8008C115.691 28.8008 113.468 28.8008 111.13 28.8008C111.13 21.8732 111.13 14.9456 111.13 7.87366Z" fill="#DEDEDE"/>
</g>
<defs>
<clipPath id="clip0_33_3187">
<rect width="118" height="118" fill="white" transform="translate(0 0.974915)"/>
</clipPath>
</defs>
</svg>
