<svg width="27" height="28" viewBox="0 0 27 28" fill="none" xmlns="http://www.w3.org/2000/svg">
<path d="M9.35618 25.7868C8.8776 25.6597 8.43582 25.4403 8.22721 24.9898C8.12904 24.7587 8.04314 24.5046 8.04314 24.262C8.03087 21.8362 8.03087 19.4104 8.04314 16.973C8.04314 16.2337 8.47264 15.7832 9.20892 15.5175C8.47264 15.067 8.04314 14.4317 8.04314 13.6C8.04314 12.7798 8.46037 12.156 9.20892 11.694C8.82851 11.5669 8.52172 11.3821 8.30084 11.0817C8.0186 10.6774 7.96951 10.2616 8.12904 9.81108C8.39901 9.03713 8.73034 8.27473 9.34391 7.67405C9.72432 7.3044 10.1538 6.99251 10.5833 6.66907C10.6447 6.62287 10.7674 6.59976 10.8533 6.59976C12.6326 6.59976 14.412 6.59976 16.1914 6.59976C16.3018 6.59976 16.4122 6.63442 16.5104 6.69217C17.5903 7.35061 18.3266 8.25163 18.7561 9.39523C18.8297 9.5916 18.9156 9.77643 18.9647 9.98435C19.1242 10.6774 18.7561 11.3359 18.0566 11.6131C17.9953 11.6362 17.9216 11.6593 17.848 11.694C19.4187 12.6528 19.3574 14.6165 17.8357 15.5291C17.9094 15.5522 17.9584 15.5753 18.0075 15.5984C18.6211 15.8525 18.9892 16.2915 18.9892 16.9268C19.0015 19.3873 19.0015 21.8477 18.9892 24.3082C18.9892 25.0129 18.5352 25.5327 17.8235 25.7406C17.7744 25.7522 17.713 25.7753 17.6639 25.7984C14.9029 25.7868 12.1295 25.7868 9.35618 25.7868Z" fill="currentColor"/>
<path d="M13.5285 5.13272C12.7799 5.13272 12.0313 5.13272 11.2705 5.13272C10.6938 5.13272 10.387 4.84393 10.3747 4.28946C10.3747 3.8505 10.3747 3.41155 10.3747 2.97259C10.387 2.48743 10.706 2.17554 11.2214 2.17554C12.7554 2.17554 14.2893 2.17554 15.8232 2.17554C16.3263 2.17554 16.6454 2.48743 16.6454 2.96104C16.6454 3.41155 16.6454 3.8505 16.6454 4.30101C16.6454 4.83238 16.3386 5.13272 15.7741 5.13272C15.0256 5.13272 14.277 5.13272 13.5285 5.13272Z" fill="currentColor"/>
<path d="M16.4981 19.8493C16.7068 20.0456 16.7068 20.3575 16.4981 20.5539L14.6329 22.3097C14.0193 22.8873 13.0131 22.8873 12.3995 22.3097L10.5342 20.5423C10.3256 20.346 10.3256 20.0341 10.5342 19.8377C10.7429 19.6413 11.0742 19.6413 11.2828 19.8377L12.9885 21.4434V12.8375L11.2828 14.4432C11.0742 14.6395 10.7429 14.6395 10.5342 14.4432C10.3256 14.2468 10.3256 13.9349 10.5342 13.7385L12.3995 11.9942C13.0131 11.4167 14.0193 11.4167 14.6329 11.9942L16.4981 13.7501C16.7068 13.9464 16.7068 14.2583 16.4981 14.4547C16.2895 14.6511 15.9582 14.6511 15.7496 14.4547L14.0439 12.8375V21.4549L15.7619 19.8493C15.9582 19.6529 16.3018 19.6529 16.4981 19.8493Z" fill="white"/>
</svg>
