<svg width="360" height="641" viewBox="0 0 360 641" fill="none" xmlns="http://www.w3.org/2000/svg">
<g clip-path="url(#clip0_1_120)">
<rect width="360" height="640" transform="translate(0 0.974915)" fill="white"/>
<g clip-path="url(#clip1_1_120)">
<path d="M27.77 151.579L88.1317 118.196L111.751 159.047C125.311 183.645 113.064 206.925 78.5088 207.364C73.26 207.364 57.9509 207.804 57.9509 207.804L27.77 151.579Z" fill="#F7F7F7"/>
<path d="M-19.0321 110.729L50.515 113.804L82.8829 56.7009L62.3249 67.6822L46.5784 39.1308C37.8303 26.8318 36.0807 22 -6.78483 22H-58.3984H-57.961C-41.3397 25.0748 -32.5916 37.3738 -30.4046 42.6449L0.651012 100.187L-19.0321 110.729Z" fill="#F7F7F7"/>
<path d="M15.9599 188.477L-21.6567 247.336L11.5859 304L12.4607 280.72L45.266 281.159C60.1377 279.402 64.9491 280.72 86.3819 243.383L112.189 198.579H111.751C100.816 211.318 86.3819 211.757 80.6957 211.318H15.9599V188.477Z" fill="#F7F7F7"/>
</g>
<g clip-path="url(#clip2_1_120)">
<path d="M339.914 442.953L280.864 407.374L304.047 366.523C318.481 342.364 344.725 341.047 362.659 371.355C365.283 375.748 373.156 389.365 373.156 389.365L339.914 442.953Z" fill="#F7F7F7"/>
<path d="M377.968 433.729L447.515 436.804L479.883 379.701L459.325 390.682L443.578 362.131C434.83 349.832 433.081 345 390.215 345H338.602H339.039C355.66 348.075 364.408 360.374 366.595 365.645L397.651 423.187L377.968 433.729Z" fill="#F7F7F7"/>
<path d="M330.728 500.935L298.36 439L232.75 439.439L252.87 451.738L236.249 479.85C220.065 509.28 245.434 530.804 273.866 530.804H286.55L311.92 489.075L330.728 500.935Z" fill="#F7F7F7"/>
<path d="M359.159 534.757L358.284 605.477H300.547C300.547 605.477 280.427 605.477 270.804 586.589C262.493 569.897 235.374 519.383 235.374 519.383C235.374 519.383 244.997 533.878 266.867 534.318C304.484 535.636 359.159 534.757 359.159 534.757Z" fill="#F7F7F7"/>
</g>
</g>
<defs>
<clipPath id="clip0_1_120">
<rect width="360" height="640" fill="white" transform="translate(0 0.974915)"/>
</clipPath>
<clipPath id="clip1_1_120">
<rect width="283" height="282" fill="white" transform="translate(-166 22)"/>
</clipPath>
<clipPath id="clip2_1_120">
<rect width="283" height="282" fill="white" transform="translate(231 345)"/>
</clipPath>
</defs>
</svg>
