<svg xmlns="http://www.w3.org/2000/svg" xmlns:xlink="http://www.w3.org/1999/xlink" viewBox="0 0 354.55 83.62"><defs><style>.cls-1{fill:none;}.cls-2{isolation:isolate;}.cls-3{fill:#7dcdf4;}.cls-3,.cls-5{mix-blend-mode:multiply;}.cls-4{fill:#26367d;}.cls-5{fill:url(#Dégradé_sans_nom_49);}.cls-6{clip-path:url(#clip-path);}.cls-7{fill:url(#Dégradé_sans_nom_69);}.cls-8{font-size:21.29px;fill:#01b9e2;font-family:CeraGR-Medium, CeraGR Medium;font-weight:500;}</style><linearGradient id="Dégradé_sans_nom_49" x1="216.61" y1="48.09" x2="256.35" y2="5.02" gradientUnits="userSpaceOnUse"><stop offset="0" stop-color="#003c56"/><stop offset="0.08" stop-color="#39687c"/><stop offset="0.19" stop-color="#7f9daa"/><stop offset="0.29" stop-color="#b6c7cf"/><stop offset="0.37" stop-color="#dee5e9"/><stop offset="0.43" stop-color="#f6f8f9"/><stop offset="0.47" stop-color="#fff"/></linearGradient><clipPath id="clip-path"><path class="cls-1" d="M252.69,42.32a22.5,22.5,0,0,1-12.32,3.56,22.94,22.94,0,1,1,12.32-42.4l-5.82,10.35a11.49,11.49,0,0,0-6.5-2,11.19,11.19,0,1,0,0,22.37,11,11,0,0,0,6.5-2.11Z"/></clipPath><linearGradient id="Dégradé_sans_nom_69" x1="217.35" y1="22.94" x2="315.56" y2="22.94" gradientUnits="userSpaceOnUse"><stop offset="0" stop-color="#26367d"/><stop offset="0.25" stop-color="#5486bc"/><stop offset="0.49" stop-color="#7dcdf4"/><stop offset="0.5" stop-color="#81cff4" stop-opacity="0.97"/><stop offset="0.61" stop-color="#a7ddf8" stop-opacity="0.68"/><stop offset="0.71" stop-color="#c6e9fa" stop-opacity="0.44"/><stop offset="0.8" stop-color="#dff3fc" stop-opacity="0.25"/><stop offset="0.89" stop-color="#f0f9fe" stop-opacity="0.11"/><stop offset="0.95" stop-color="#fbfeff" stop-opacity="0.03"/><stop offset="1" stop-color="#fff" stop-opacity="0"/></linearGradient></defs><title>Asset 1</title><g class="cls-2"><g id="Layer_2" data-name="Layer 2"><g id="Calque_1" data-name="Calque 1"><path class="cls-3" d="M344.9,12.76a2.27,2.27,0,0,1,2.49,0,6,6,0,0,1,1.4,1.13,8.12,8.12,0,0,1,1.12,1.82,6,6,0,0,1,.31,3.87,2.26,2.26,0,0,1-1.76,1.76,2.75,2.75,0,0,1-2.18-1,7,7,0,0,1-1.63-2.48C343.88,15.93,343.69,13.8,344.9,12.76Z"/><path class="cls-3" d="M315.71,22.29c-1.16-1.22-.65-3.57,1.24-5.13a4.94,4.94,0,0,1,3-1.15,2.57,2.57,0,0,1,2.2,1.11c.88,1.43.31,3.39-1.35,4.76S316.86,23.5,315.71,22.29Z"/><path class="cls-3" d="M308.62,28.42c-1.08-1.17-.67-3.48,1-5.15s4.08-1.91,5.11-.66.52,3.38-1.05,4.89a6,6,0,0,1-1.25.9,2.27,2.27,0,0,1-.3.13l-.4.2A3.74,3.74,0,0,1,311,29,2.5,2.5,0,0,1,308.62,28.42Z"/><path class="cls-3" d="M328.65,12.78a1.72,1.72,0,0,1,.05-1.63,2.51,2.51,0,0,1,.63-.73,3.17,3.17,0,0,1,.93-.43,2,2,0,0,1,1.79.58,1.62,1.62,0,0,1,.4,1.54,2.88,2.88,0,0,1-.77,1.32c-.41.31-.45.59-.71.59-.09,0-.18,0-.4,0a1.84,1.84,0,0,1-.69-.19A2.13,2.13,0,0,1,328.65,12.78Z"/><path class="cls-3" d="M329.19,7.35a1.11,1.11,0,0,1,.63-1.2,2.56,2.56,0,0,1,1-.38,4.55,4.55,0,0,1,.61,0l.62.06A3.13,3.13,0,0,1,334,6.85a1.14,1.14,0,0,1,.21,1.3,1.58,1.58,0,0,1-1.11.59,5,5,0,0,1-1.53,0,5.94,5.94,0,0,1-1.44-.48A1.59,1.59,0,0,1,329.19,7.35Z"/><path class="cls-3" d="M322.24,11c-.32-.27-.24-.85.34-1.47a5.12,5.12,0,0,1,1.22-1c.29-.16.52-.28.79-.41s.56-.21.85-.3a5.21,5.21,0,0,1,3-.15c.68.21,1,.63.8,1.07A2.63,2.63,0,0,1,328,10a10.2,10.2,0,0,1-2.06.86,9.9,9.9,0,0,1-2.11.41A2.13,2.13,0,0,1,322.24,11Z"/><path class="cls-3" d="M309.54,15.79c-.92-1-.42-3,1.22-4.35s3.75-1.57,4.54-.47.14,2.93-1.38,4.22S310.47,16.78,309.54,15.79Z"/><path class="cls-3" d="M319.12,9.21c-.87-1.31.17-3.62,3-4.93a8,8,0,0,1,2.24-.62,7.5,7.5,0,0,1,2.24.06c1.29.37,2,1,2,1.83a2.88,2.88,0,0,1-1.33,2.17,11.25,11.25,0,0,1-2.84,1.82C322.31,10.52,320,10.54,319.12,9.21Z"/><path class="cls-3" d="M333.46,12.6c.18-1.35,1.79-2.19,3.44-1.48a2.34,2.34,0,0,1,1.22,3.55,2.85,2.85,0,0,1-3.2.92A2.85,2.85,0,0,1,333.46,12.6Z"/><path class="cls-3" d="M329,2.79a1.68,1.68,0,0,1,1.07-1.68,6.53,6.53,0,0,1,1.54-.58,8.56,8.56,0,0,1,2-.09c2.57.25,4.16,2,3.71,3s-2.23,1.25-4.12,1.08S329.38,3.86,329,2.79Z"/><path class="cls-3" d="M333.23,15.77a.56.56,0,1,1,1,.31c-.15.37-.46.58-.71.5S333.14,16.15,333.23,15.77Z"/><path class="cls-3" d="M340.51,10.16c.69-1.12,3-1,4.61.83s1.57,4.09.38,4.67-2.82-.15-4-1.4S339.78,11.31,340.51,10.16Z"/><path class="cls-3" d="M344.14,7.23c.49-.67,2-.32,3.24.94s1.46,2.84.8,3.29-1.91-.17-2.95-1.23S343.65,7.88,344.14,7.23Z"/><path class="cls-3" d="M335.33,6.36c.12-.83,1.62-1.25,3.3-.72s2.64,1.8,2.26,2.51-1.75.76-3.17.32S335.21,7.16,335.33,6.36Z"/><path class="cls-3" d="M350.59,19c1-.25,2.14,1.18,2.24,3.23s-.89,3.6-1.86,3.45-1.58-1.6-1.69-3.25S349.65,19.2,350.59,19Z"/><path class="cls-3" d="M345.64,26.35c.56.1.86.88.63,1.72s-1,1.3-1.51,1.05a1.33,1.33,0,0,1-.49-1.68A1.33,1.33,0,0,1,345.64,26.35Z"/><path class="cls-3" d="M342.22,19.6a1.37,1.37,0,0,1,.6,2.68,1.37,1.37,0,0,1-1.44-1.09A1.39,1.39,0,0,1,342.22,19.6Z"/><path class="cls-3" d="M338.71,15a1.77,1.77,0,0,1,2.71.22,1.77,1.77,0,0,1-.3,2.7A1.92,1.92,0,0,1,338.71,15Z"/><path class="cls-3" d="M344.84,18.54c1.19-.5,2.85.72,3.08,2.85s-1,3.7-2.31,3.51A3.18,3.18,0,0,1,343.24,22,3.19,3.19,0,0,1,344.84,18.54Z"/><path class="cls-3" d="M342.38,28.21c1,.41,1.39,1.92.5,3.19a2.06,2.06,0,0,1-3.17.59,2.39,2.39,0,0,1,2.67-3.78Z"/><path class="cls-3" d="M343.48,23.57a1,1,0,0,1,.85,1.14c-.1.63-.58,1.05-1.07.95a1,1,0,0,1-.74-1.13A1,1,0,0,1,343.48,23.57Z"/><path class="cls-3" d="M344.35,14.72c.34-.24.91,0,1.25.6s.23,1.23-.14,1.4-.87-.13-1.19-.64A1,1,0,0,1,344.35,14.72Z"/><path class="cls-3" d="M314,32.38c-.45-.46-.21-1.42.53-2.17a4.37,4.37,0,0,1,.62-.5c.25-.17.31-.11.51-.16a1,1,0,0,1,.89.27,1.08,1.08,0,0,1,.29.88c0,.08,0,.18,0,.24s0,.11-.1.27a4.89,4.89,0,0,1-.51.65C315.41,32.63,314.43,32.85,314,32.38Z"/><path class="cls-3" d="M312.52,8.26c-.39-.5-.06-1.46.83-2.11s1.91-.75,2.28-.22,0,1.47-.87,2.1S312.94,8.77,312.52,8.26Z"/><path class="cls-3" d="M338.91,17.75a1,1,0,0,1,1.42.23,1,1,0,0,1-.44,1.38,1.09,1.09,0,0,1-1.35-.28A1.07,1.07,0,0,1,338.91,17.75Z"/><path class="cls-3" d="M347,23.47c.58,0,1,.75,1,1.68s-.71,1.57-1.29,1.44a1.43,1.43,0,0,1-.8-1.67C345.92,24.13,346.41,23.47,347,23.47Z"/><path class="cls-3" d="M342.31,31.51a1.41,1.41,0,0,1-1.87,2,1.45,1.45,0,0,1,1.87-2Z"/><path class="cls-3" d="M351,25.63c.74.08,1.33.74,1.64,1.83a6.83,6.83,0,0,1-.38,4.07c-1.2,3-3.8,4.38-4.94,3.44s-.89-3.21,0-5.41S349.46,25.52,351,25.63Z"/><path class="cls-3" d="M337.41,42.06c.24.69-.74,1.63-2.21,1.9s-2.71-.29-2.77-1,1-1.35,2.29-1.59S337.18,41.36,337.41,42.06Z"/><path class="cls-3" d="M341.13,36.05c.69.85,0,2.52-1.69,3.36s-3.46.38-3.71-.68.68-2.19,1.95-2.84S340.45,35.21,341.13,36.05Z"/><path class="cls-3" d="M337.92,32.75A1.61,1.61,0,0,1,335,34.17a1.63,1.63,0,0,1,2.88-1.42Z"/><path class="cls-3" d="M328.92,37c-.18.66-1.14,1-2.09.56s-1.4-1.29-1.08-1.9a1.59,1.59,0,0,1,2.06-.39A1.56,1.56,0,0,1,328.92,37Z"/><path class="cls-3" d="M330.55,41c-.05.86-1.46,1.4-3.09.92s-2.3-1.61-2-2.37,1.57-.93,2.82-.54S330.6,40.21,330.55,41Z"/><path class="cls-3" d="M336.16,38.09c.37,1-.81,2.42-2.74,2.64a3.85,3.85,0,0,1-2.46-.51,1.58,1.58,0,0,1-.79-1.52,2.11,2.11,0,0,1,1-1.34A3.71,3.71,0,0,1,333,36.7C334.38,36.54,335.78,37,336.16,38.09Z"/><path class="cls-3" d="M317.34,32.11c-.24.31-.82.26-1.28-.11s-.62-.93-.37-1.23.83-.26,1.28.11S317.59,31.79,317.34,32.11Z"/><path class="cls-3" d="M324,35.9c-.28.49-1.13.55-1.86.08s-1-1.24-.71-1.71,1.13-.47,1.82,0S324.23,35.4,324,35.9Z"/><path class="cls-3" d="M319.75,35.84c-.25.37-.9.34-1.45-.05s-.78-1-.51-1.37.9-.31,1.44.08S320,35.48,319.75,35.84Z"/><path class="cls-3" d="M345.36,35c.92.71.49,2.81-1.36,4.28s-4,1.39-4.49.31.45-2.55,1.84-3.68S344.41,34.24,345.36,35Z"/><path class="cls-3" d="M317.26,7.69c-.47-.68.07-1.89,1.29-2.67s2.62-.79,3,0-.25,1.9-1.43,2.6S317.75,8.38,317.26,7.69Z"/><path class="cls-3" d="M335,10.59c.21-.83,1.32-1.22,2.44-.74s1.55,1.61,1.09,2.3A2,2,0,0,1,335,10.59Z"/><path class="cls-3" d="M347.05,28.85c1,.31,1.3,2,.39,3.61s-2.55,2.18-3.29,1.5-.63-2.1.07-3.34S346.08,28.54,347.05,28.85Z"/><path class="cls-3" d="M345.09,40.89c.2.26-.1.84-.69,1.27s-1.27.47-1.43.19.18-.8.75-1.18S344.88,40.63,345.09,40.89Z"/><path class="cls-3" d="M325.35,33.48a.72.72,0,0,1-1,.09.73.73,0,0,1-.39-1,.75.75,0,0,1,1-.08A.74.74,0,0,1,325.35,33.48Z"/><path class="cls-3" d="M319.2,14.08c-.89-1.15-.2-3.22,1.77-4.37a4.19,4.19,0,0,1,2.91-.6,2,2,0,0,1,1.65,1.41,2.88,2.88,0,0,1-.25,2.07,4,4,0,0,1-1.63,1.69C322.09,15.19,320.09,15.25,319.2,14.08Z"/><path class="cls-3" d="M327.73,19.6a.73.73,0,0,1,.31-1,.71.71,0,0,1,1,.21.74.74,0,0,1-.3,1A.75.75,0,0,1,327.73,19.6Z"/><path class="cls-3" d="M312.46,19.54a.72.72,0,0,1,.31-1,.7.7,0,0,1,1,.2.76.76,0,0,1-.3,1A.75.75,0,0,1,312.46,19.54Z"/><path class="cls-3" d="M313.71,17a.39.39,0,0,1,.17-.54.38.38,0,0,1,.55.11.41.41,0,0,1-.17.54A.42.42,0,0,1,313.71,17Z"/><path class="cls-3" d="M311.15,18a.85.85,0,0,1,.43-1.24,1,1,0,0,1,1.41.26.88.88,0,0,1-.42,1.23A1.13,1.13,0,0,1,311.15,18Z"/><path class="cls-3" d="M310.8,20.14a.4.4,0,0,1,.17-.54.38.38,0,0,1,.55.11.42.42,0,0,1-.72.43Z"/><path class="cls-3" d="M313.31,21.13a.42.42,0,0,1,.71-.43.41.41,0,0,1-.16.54A.4.4,0,0,1,313.31,21.13Z"/><path class="cls-3" d="M310.76,9.82c-.06-.19.18-.47.63-.61s.91-.11,1,.08-.28.45-.75.59S310.84,10,310.76,9.82Z"/><path class="cls-3" d="M351.31,14.22c.29-.14.82.25,1.05.93s.19,1.31-.12,1.41-.75-.34-1-1S351,14.36,351.31,14.22Z"/><path class="cls-3" d="M341.59,5c.21-.24.85-.09,1.34.44s.69,1.11.45,1.33-.83,0-1.3-.49S341.36,5.3,341.59,5Z"/><path class="cls-3" d="M316.75,15c-.61-.74-.19-2.12,1-3s2.65-.92,3.19-.1,0,2.08-1.08,2.93S317.37,15.71,316.75,15Z"/><path class="cls-3" d="M349.87,24.19c.87,0,1.53,1.39,1.22,3.06s-1.47,2.69-2.29,2.37-1.06-1.62-.78-3S349,24.17,349.87,24.19Z"/><path class="cls-3" d="M274,31.7a2.27,2.27,0,0,1-2.49,0,6.31,6.31,0,0,1-1.4-1.13A8.12,8.12,0,0,1,269,28.76a6.13,6.13,0,0,1-.32-3.87,2.29,2.29,0,0,1,1.77-1.76,2.75,2.75,0,0,1,2.18,1,7,7,0,0,1,1.63,2.48C275,28.52,275.21,30.65,274,31.7Z"/><path class="cls-3" d="M303.19,22.17c1.16,1.21.65,3.57-1.24,5.12a4.89,4.89,0,0,1-3,1.16,2.6,2.6,0,0,1-2.2-1.11c-.88-1.44-.31-3.39,1.35-4.76S302,21,303.19,22.17Z"/><path class="cls-3" d="M310.28,16c1.08,1.17.67,3.47-1,5.15s-4.08,1.91-5.11.65-.52-3.38,1.05-4.88a5.61,5.61,0,0,1,1.25-.9,1.94,1.94,0,0,1,.3-.14c.12-.05.28-.15.4-.19a3.74,3.74,0,0,1,.74-.24A2.47,2.47,0,0,1,310.28,16Z"/><path class="cls-3" d="M290.25,31.67a1.74,1.74,0,0,1-.05,1.64,2.64,2.64,0,0,1-.63.73,2.92,2.92,0,0,1-.93.42,2,2,0,0,1-1.79-.58,1.6,1.6,0,0,1-.4-1.53,2.79,2.79,0,0,1,.77-1.33c.41-.31.45-.58.71-.58.09-.05.18,0,.4,0a2,2,0,0,1,.69.18A2.24,2.24,0,0,1,290.25,31.67Z"/><path class="cls-3" d="M289.71,37.1a1.12,1.12,0,0,1-.63,1.21,2.72,2.72,0,0,1-1,.38c-.23,0-.41.05-.61.05a4.36,4.36,0,0,1-.62-.07,3.12,3.12,0,0,1-1.9-1.06,1.14,1.14,0,0,1-.21-1.3,1.54,1.54,0,0,1,1.11-.59,5,5,0,0,1,1.53,0,5.94,5.94,0,0,1,1.44.48A1.61,1.61,0,0,1,289.71,37.1Z"/><path class="cls-3" d="M296.66,33.44c.32.27.24.85-.34,1.47a5.12,5.12,0,0,1-1.22,1c-.29.15-.52.28-.79.4s-.56.22-.85.31a5.39,5.39,0,0,1-3,.15c-.68-.21-.95-.64-.8-1.07a2.63,2.63,0,0,1,1.23-1.19,10.21,10.21,0,0,1,2.06-.87,11.32,11.32,0,0,1,2.11-.41A2.19,2.19,0,0,1,296.66,33.44Z"/><path class="cls-3" d="M309.35,28.67c.93,1,.43,3-1.22,4.34s-3.74,1.58-4.53.48-.14-2.93,1.38-4.22S308.43,27.68,309.35,28.67Z"/><path class="cls-3" d="M299.78,35.24c.87,1.31-.17,3.63-3,4.94a8.71,8.71,0,0,1-2.24.62,7.48,7.48,0,0,1-2.24-.07c-1.29-.36-2-1-2-1.82a2.88,2.88,0,0,1,1.33-2.18,11,11,0,0,1,2.84-1.81C296.59,33.93,298.89,33.92,299.78,35.24Z"/><path class="cls-3" d="M285.44,31.86c-.18,1.35-1.79,2.18-3.45,1.48a2.35,2.35,0,0,1-1.21-3.56,2.59,2.59,0,0,1,4.66,2.08Z"/><path class="cls-3" d="M289.85,41.67c.15.51-.24,1.24-1.07,1.68a5.9,5.9,0,0,1-1.53.57,7.55,7.55,0,0,1-1.95.09c-2.57-.25-4.17-1.94-3.72-2.95s2.24-1.25,4.13-1.08S289.51,40.59,289.85,41.67Z"/><path class="cls-3" d="M285.67,28.69a.56.56,0,1,1-1-.31c.15-.37.46-.58.7-.5S285.75,28.31,285.67,28.69Z"/><path class="cls-3" d="M278.39,34.3c-.69,1.12-3,1-4.61-.84s-1.57-4.09-.38-4.67,2.82.16,4,1.41S279.12,33.15,278.39,34.3Z"/><path class="cls-3" d="M274.76,37.23c-.49.67-2,.32-3.24-.95s-1.47-2.83-.8-3.28,1.91.17,2.95,1.23S275.25,36.58,274.76,37.23Z"/><path class="cls-3" d="M283.57,38.1c-.12.83-1.62,1.25-3.3.72S277.63,37,278,36.31s1.76-.76,3.18-.32S283.69,37.3,283.57,38.1Z"/><path class="cls-3" d="M268.3,25.5c-.95.26-2.13-1.18-2.23-3.23s.89-3.59,1.86-3.45,1.58,1.6,1.69,3.26S269.25,25.26,268.3,25.5Z"/><path class="cls-3" d="M273.26,18.11c-.57-.1-.86-.88-.63-1.72s1-1.3,1.51-1.05a1.32,1.32,0,0,1,.48,1.68A1.31,1.31,0,0,1,273.26,18.11Z"/><path class="cls-3" d="M276.68,24.85a1.27,1.27,0,0,1-1.61-1.05,1.28,1.28,0,0,1,1-1.63,1.39,1.39,0,0,1,1.44,1.1A1.38,1.38,0,0,1,276.68,24.85Z"/><path class="cls-3" d="M280.18,29.5a1.89,1.89,0,1,1-2.4-2.92,1.92,1.92,0,0,1,2.4,2.92Z"/><path class="cls-3" d="M274.06,25.92c-1.19.49-2.85-.73-3.08-2.86s1-3.69,2.31-3.5a3.18,3.18,0,0,1,2.37,3A3.2,3.2,0,0,1,274.06,25.92Z"/><path class="cls-3" d="M276.52,16.25c-1-.42-1.39-1.92-.51-3.19s2.44-1.43,3.18-.6a2.41,2.41,0,0,1,.13,2.93A2.38,2.38,0,0,1,276.52,16.25Z"/><path class="cls-3" d="M275.42,20.89a1,1,0,0,1-.85-1.15c.1-.62.58-1,1.07-.94a1.07,1.07,0,0,1-.22,2.09Z"/><path class="cls-3" d="M274.55,29.73c-.34.24-.91,0-1.25-.6s-.24-1.22.14-1.39.87.13,1.18.64A1,1,0,0,1,274.55,29.73Z"/><path class="cls-3" d="M304.92,12.08c.45.46.21,1.41-.53,2.17a4.37,4.37,0,0,1-.62.5c-.25.17-.31.1-.51.16a1.05,1.05,0,0,1-.89-.28,1.12,1.12,0,0,1-.3-.88,2.23,2.23,0,0,0,0-.23c0-.07,0-.11.1-.27a4.89,4.89,0,0,1,.51-.65C303.49,11.82,304.47,11.61,304.92,12.08Z"/><path class="cls-3" d="M306.38,36.19c.39.51.06,1.47-.84,2.12s-1.9.75-2.27.22,0-1.47.87-2.1S306,35.68,306.38,36.19Z"/><path class="cls-3" d="M280,26.71a1,1,0,1,1-1-1.61,1.09,1.09,0,0,1,1.35.28A1.07,1.07,0,0,1,280,26.71Z"/><path class="cls-3" d="M271.91,21c-.58,0-1-.75-1-1.68s.71-1.57,1.29-1.44a1.42,1.42,0,0,1,.8,1.66C273,20.33,272.49,21,271.91,21Z"/><path class="cls-3" d="M276.59,12.94a1.19,1.19,0,0,1,.12-1.76,1.2,1.2,0,0,1,1.75-.25,1.3,1.3,0,0,1-.22,1.67A1.29,1.29,0,0,1,276.59,12.94Z"/><path class="cls-3" d="M268,18.82c-.74-.08-1.33-.73-1.64-1.82a6.9,6.9,0,0,1,.37-4.07c1.21-3,3.81-4.38,4.95-3.44s.89,3.2,0,5.41S269.44,18.94,268,18.82Z"/><path class="cls-3" d="M281.49,2.4c-.24-.69.73-1.63,2.21-1.91s2.71.3,2.77,1-1,1.36-2.3,1.6S281.72,3.1,281.49,2.4Z"/><path class="cls-3" d="M277.77,8.4c-.69-.84,0-2.51,1.69-3.36s3.46-.37,3.71.69-.68,2.19-2,2.84S278.45,9.24,277.77,8.4Z"/><path class="cls-3" d="M281,11.71a1.46,1.46,0,0,1,.74-2.12,1.47,1.47,0,0,1,2.14.7A1.63,1.63,0,0,1,281,11.71Z"/><path class="cls-3" d="M290,7.42c.18-.67,1.14-1,2.09-.56s1.4,1.29,1.08,1.89a1.6,1.6,0,0,1-2.06.4A1.56,1.56,0,0,1,290,7.42Z"/><path class="cls-3" d="M288.35,3.42c0-.85,1.46-1.4,3.09-.91s2.3,1.61,2,2.36-1.57.93-2.82.55S288.3,4.25,288.35,3.42Z"/><path class="cls-3" d="M282.74,6.36c-.37-1,.81-2.41,2.73-2.63a3.87,3.87,0,0,1,2.47.5,1.58,1.58,0,0,1,.78,1.53,2.06,2.06,0,0,1-1,1.34,3.75,3.75,0,0,1-1.82.66C284.52,7.92,283.12,7.43,282.74,6.36Z"/><path class="cls-3" d="M301.56,12.35c.24-.31.82-.26,1.28.11s.62.93.37,1.23a1,1,0,0,1-1.28-.12C301.48,13.21,301.31,12.66,301.56,12.35Z"/><path class="cls-3" d="M295,8.56c.28-.5,1.13-.55,1.85-.09s1.05,1.24.72,1.71-1.13.48-1.82,0S294.67,9.06,295,8.56Z"/><path class="cls-3" d="M299.15,8.61c.25-.36.9-.33,1.45.06s.78,1,.51,1.36-.9.32-1.44-.07S298.9,9,299.15,8.61Z"/><path class="cls-3" d="M273.54,9.48c-.92-.71-.49-2.82,1.36-4.28s4-1.39,4.49-.31-.45,2.55-1.84,3.68S274.49,10.22,273.54,9.48Z"/><path class="cls-3" d="M301.64,36.76c.47.69-.07,1.89-1.29,2.68s-2.62.78-3,0,.25-1.9,1.43-2.61S301.15,36.08,301.64,36.76Z"/><path class="cls-3" d="M283.87,33.87c-.21.83-1.32,1.22-2.44.74s-1.55-1.62-1.09-2.3a2,2,0,0,1,3.53,1.56Z"/><path class="cls-3" d="M271.85,15.61c-1-.31-1.3-2-.39-3.61s2.55-2.18,3.29-1.51.62,2.11-.07,3.35S272.82,15.91,271.85,15.61Z"/><path class="cls-3" d="M273.81,3.56c-.21-.26.1-.83.69-1.26s1.26-.47,1.43-.19-.18.79-.75,1.18S274,3.82,273.81,3.56Z"/><path class="cls-3" d="M293.55,11a.72.72,0,0,1,1-.09.74.74,0,0,1,.39.95.75.75,0,0,1-1,.07A.73.73,0,0,1,293.55,11Z"/><path class="cls-3" d="M299.7,30.38c.88,1.15.2,3.21-1.77,4.37a4.18,4.18,0,0,1-2.91.59,2,2,0,0,1-1.65-1.4,2.91,2.91,0,0,1,.24-2.08,4.19,4.19,0,0,1,1.64-1.69C296.81,29.27,298.81,29.21,299.7,30.38Z"/><path class="cls-3" d="M291.17,24.86a.73.73,0,0,1-.31,1,.71.71,0,0,1-1-.21.74.74,0,0,1,.3-1A.75.75,0,0,1,291.17,24.86Z"/><path class="cls-3" d="M306.44,24.92a.72.72,0,0,1-.31,1,.69.69,0,0,1-1-.21.77.77,0,0,1,1.32-.79Z"/><path class="cls-3" d="M305.19,27.47A.4.4,0,0,1,305,28a.38.38,0,0,1-.55-.11.42.42,0,0,1,.72-.43Z"/><path class="cls-3" d="M307.75,26.43a.86.86,0,0,1-.43,1.24,1.05,1.05,0,0,1-1.41-.26.89.89,0,0,1,.42-1.24A1.14,1.14,0,0,1,307.75,26.43Z"/><path class="cls-3" d="M308.09,24.32a.42.42,0,0,1-.71.43.41.41,0,0,1,.16-.54A.4.4,0,0,1,308.09,24.32Z"/><path class="cls-3" d="M305.59,23.33a.42.42,0,0,1-.71.43.41.41,0,0,1,.16-.54A.4.4,0,0,1,305.59,23.33Z"/><path class="cls-3" d="M308.14,34.64c.06.18-.18.46-.63.61s-.91.1-1-.08.28-.45.75-.59S308.06,34.46,308.14,34.64Z"/><path class="cls-3" d="M267.59,30.24c-.29.14-.82-.26-1-.94s-.19-1.3.12-1.4.75.34,1,1S267.9,30.1,267.59,30.24Z"/><path class="cls-3" d="M277.31,39.42c-.21.24-.85.09-1.34-.44s-.7-1.12-.45-1.33.82,0,1.29.49S277.54,39.16,277.31,39.42Z"/><path class="cls-3" d="M302.15,29.5c.61.75.18,2.13-1,3s-2.65.92-3.19.11,0-2.09,1.08-2.93S301.53,28.74,302.15,29.5Z"/><path class="cls-3" d="M269,20.27c-.87,0-1.53-1.39-1.22-3.06s1.47-2.7,2.29-2.37,1.06,1.62.78,3S269.89,20.29,269,20.27Z"/><path class="cls-4" d="M18.92,2.17a15,15,0,0,1,14.93,15v2.5A14.8,14.8,0,0,1,18.92,34.46H11.07V45.1H0V17A15,15,0,0,1,15,2.17ZM14.85,13.1a4,4,0,0,0-3.92,4.07V24.6h8c2.15,0,3.93-2.36,3.93-4.57V17.17a4,4,0,0,0-3.93-4.07Z"/><path class="cls-4" d="M79.78,23.74a22,22,0,1,1-22-22.06A21.89,21.89,0,0,1,79.78,23.74Zm-32.64,0A10.71,10.71,0,1,0,57.78,13,10.65,10.65,0,0,0,47.14,23.74Z"/><path class="cls-4" d="M93.63,31a3,3,0,0,0,3.08,2.85h9.78V45.1H96.06A13.51,13.51,0,0,1,82.42,31.24V1.89H93.63Z"/><path class="cls-4" d="M144.35,9.82c0,3.35-.72,6.21-3.08,8.64L131.85,28.6V45.1H121.14V28.6l-9.5-10.14c-2.29-2.43-3-5.29-3-8.64V2.25h10.85v8.21a3.4,3.4,0,0,0,.79,2.36l6.14,6.85,6.21-6.85a3.4,3.4,0,0,0,.79-2.36V2.25h10.93Z"/><path class="cls-4" d="M166.7,2.1a15.05,15.05,0,0,1,15,15v2.5c0,4.36-3.14,10-7.36,11.21,5.15,2.72,7.36,8.93,7.36,14.29H170.56c0-5.86-4.79-11.57-10.64-11.57h-2.36V45.1H146.42V16.89A15.12,15.12,0,0,1,161.49,2.1Zm-5.21,11a4,4,0,0,0-4,3.93l.07,7.57h9.14a4,4,0,0,0,3.93-3.93V17a4,4,0,0,0-3.93-3.93Z"/><path class="cls-4" d="M199.27,13a4,4,0,0,0-3.93,4v1.71h19.07V28.88H195.34v1.43a4.22,4.22,0,0,0,3.93,4.22h15.14V45.1H199.27a14.92,14.92,0,0,1-14.85-14.79V17.17A14.93,14.93,0,0,1,199.27,2.32h15.14V13Z"/><path class="cls-4" d="M252.69,42.32a22.5,22.5,0,0,1-12.32,3.56,22.94,22.94,0,1,1,12.32-42.4l-5.82,10.35a11.49,11.49,0,0,0-6.5-2,11.19,11.19,0,1,0,0,22.37,11,11,0,0,0,6.5-2.11Z"/><path class="cls-5" d="M252.69,42.32a22.5,22.5,0,0,1-12.32,3.56,22.94,22.94,0,1,1,12.32-42.4l-5.82,10.35a11.49,11.49,0,0,0-6.5-2,11.19,11.19,0,1,0,0,22.37,11,11,0,0,0,6.5-2.11Z"/><g class="cls-6"><path class="cls-7" d="M315.56,21c-.8-8.46-7.53-12.68-15.49-12.68-24.54,0-35.21,37.52-60,37.52-12.5,0-22.24-10.27-22.72-22.15.58,9.19,7.4,13.89,15.45,13.52C255.45,36.2,268.69,0,292.86,0A22.75,22.75,0,0,1,315.56,21Z"/></g><text class="cls-8" transform="translate(24.46 78.3)">INFINITY RAW MATERIAL</text></g></g></g></svg>